<svg width="115" height="29" viewBox="0 0 115 29" fill="none" xmlns="http://www.w3.org/2000/svg">
<path fill-rule="evenodd" clip-rule="evenodd" d="M56.2353 4.24264L51.9926 0L41.9926 9.99999L40.75 11.2426H35V1.24265L29 1.24265L29 27.2426H35L35 17.2426L40.75 17.2426L41.9926 18.4853L51.9926 28.4853L56.2353 24.2426L46.2353 14.2426L56.2353 4.24264Z" fill="white"/>
<path fill-rule="evenodd" clip-rule="evenodd" d="M26 1.24268L0 1.24268L0 22.9927L0 27.2427L26 27.2427L26 1.24268ZM10.2353 21.2427L20 21.2427L20 11.478L10.2353 21.2427ZM15.75 7.24268L6 16.9927L6 7.24268L15.75 7.24268Z" fill="#FF0000"/>
<path fill-rule="evenodd" clip-rule="evenodd" d="M0 1.24268L21 1.24268L21 7.24268L6 7.24268L6 27.2427L0 27.2427L0 1.24268Z" fill="#FF0000"/>
<path fill-rule="evenodd" clip-rule="evenodd" d="M24.25 1.24268L6 1.24268L0 1.24268L0 7.24268L0 21.2427L0 24.2427L0 27.2427L24.75 27.2427V21.2427L10.2353 21.2427L24.2353 7.24268H24.25V1.24268ZM23.7394 7.24268L6 7.24268L6 16.9927L15.75 7.24268L23.7394 7.24268Z" fill="#FF0000"/>
<path fill-rule="evenodd" clip-rule="evenodd" d="M1.75 1.24268L24.25 1.24268V7.24268L1.75 7.24268L1.75 1.24268ZM10.2353 21.2427L24.75 21.2427V27.2427L1.75 27.2427L1.75 21.2427L15.75 7.24269L24.2353 7.24269L10.2353 21.2427Z" fill="#FF0000"/>
<path fill-rule="evenodd" clip-rule="evenodd" d="M60 21.25V3L66 3V3.01473L80 17.0147L80 1.25H86L86 27.25H83L80 27.25H66H60V21.25ZM66 21.25L66 11.5L75.75 21.25H66ZM115 21.25V3L109 3V3.01473L95 17.0147V1.25H89L89 27.25H92L95 27.25H109H115V21.25ZM109 21.25V11.5L99.25 21.25H109Z" fill="white"/>
</svg>
